<svg width="142" height="43" viewBox="0 0 142 43" fill="none" xmlns="http://www.w3.org/2000/svg">
<path d="M14.5 10.5L3 40C3 40 11 17.5 13.5 15.5C16 13.5 28.5 4.49999 27 17L19 38.5C19 38.5 28 18.5 29 17C30 15.5 39 6.49999 43 15.5C43.5 17 36.5 30.5 36.5 33.5C36.5 36.5 36.5794 37.7612 38.5 39C40.8892 40.541 44.5 38 45.5 37C46.5 36 53.2301 27.6863 54 26.5M54 26.5C56 22.5 56.8 17 64 12.5C72 7.49999 76 15.5 76 20M54 26.5C53.1111 30.5 53.2 36.1 58 38.5C62.8 40.9 73 35 76 20M76 20C75 25.5 70 32.5 73 37C76 41.5 81 37 83.5 33.5C83.5 33.5 96.5 12 100.5 11.5C104.5 11 99.5 36 104.5 38.5C109.5 41 117.5 34.5 121 30C124.5 25.5 138 12 138.5 7C139 1.99998 133 1.49999 131 6.49999C129 11.5 120.5 31.5 120 36C119.5 40.5 124.5 40 127 38.5C129.5 37 137 27.5 137 27.5M76 20L79 14.5M121 18.5L138.5 19M116 10.5L90.5 39.5" stroke="black" stroke-width="5" stroke-linecap="round" stroke-linejoin="round"/>
</svg>
